<?xml version="1.0" standalone="no"?>
<!DOCTYPE svg PUBLIC "-//W3C//DTD SVG 20010904//EN"
 "http://www.w3.org/TR/2001/REC-SVG-20010904/DTD/svg10.dtd">
<svg version="1.0" xmlns="http://www.w3.org/2000/svg"
 width="1200.000000pt" height="628.000000pt" viewBox="0 0 1200.000000 628.000000"
 preserveAspectRatio="xMidYMid meet">

<g transform="translate(0.000000,628.000000) scale(0.100000,-0.100000)"
fill="#000000" stroke="none">
<path d="M7696 3685 c-3 -9 -6 -84 -6 -166 l0 -149 -107 6 c-271 15 -417 -90
-454 -329 -7 -43 -9 -125 -6 -202 11 -249 74 -356 245 -417 50 -18 74 -20 202
-15 140 5 280 26 321 47 19 11 19 24 17 623 l-3 612 -101 3 c-86 2 -103 0
-108 -13z m-18 -493 c9 -7 12 -74 10 -303 l-3 -294 -76 -9 c-104 -12 -162 -2
-204 36 -55 47 -67 107 -63 296 3 138 6 162 25 197 20 37 44 59 83 77 21 9
212 9 228 0z"/>
<path d="M4921 3364 c-30 -8 -69 -23 -86 -34 -40 -25 -55 -25 -55 -2 0 10 -5
23 -12 30 -16 16 -170 16 -186 0 -9 -9 -12 -125 -12 -459 0 -246 3 -454 6
-463 5 -13 23 -16 98 -16 58 0 96 4 104 12 9 9 12 102 12 359 l0 347 63 25
c34 14 89 28 122 32 33 4 66 12 73 17 16 14 16 140 0 156 -16 16 -60 14 -127
-4z"/>
<path d="M5408 3361 c-124 -40 -194 -110 -238 -240 -29 -86 -30 -370 -1 -453
45 -130 123 -205 255 -243 50 -15 87 -17 225 -12 91 3 188 11 214 17 l48 12
-3 81 -3 82 -100 -5 c-55 -3 -147 -5 -205 -5 -98 0 -108 2 -147 28 -50 32 -80
84 -85 147 l-3 45 285 3 c212 2 286 5 292 15 10 16 10 137 -1 214 -23 154
-117 271 -252 311 -92 27 -201 28 -281 3z m226 -188 c17 -9 38 -25 48 -37 26
-31 50 -99 46 -132 l-3 -29 -169 -3 c-103 -1 -173 1 -181 8 -8 7 -10 24 -5 55
19 127 151 196 264 138z"/>
<path d="M6510 3365 c-30 -9 -74 -27 -98 -40 -39 -22 -43 -23 -48 -7 -14 44
-19 47 -104 50 -52 2 -87 -1 -96 -9 -19 -16 -21 -908 -2 -927 7 -7 44 -12 98
-12 54 0 91 5 98 12 9 9 12 102 12 359 l0 346 58 26 c109 49 223 45 260 -10
15 -24 18 -66 22 -378 l5 -350 94 -3 c63 -2 98 1 108 10 23 18 14 690 -10 764
-25 75 -56 116 -116 148 -45 24 -68 29 -140 32 -57 3 -104 -1 -141 -11z"/>
<path d="M8390 3367 c-141 -41 -234 -136 -266 -276 -17 -69 -18 -310 -3 -383
26 -120 96 -209 208 -262 l66 -31 190 1 c129 1 206 6 240 15 l50 14 3 76 c2
57 -1 78 -11 82 -7 2 -73 0 -147 -5 -230 -16 -314 2 -358 76 -26 44 -44 136
-28 142 6 2 137 5 291 6 l280 3 0 125 c-1 142 -14 192 -71 276 -40 60 -99 105
-169 129 -64 23 -215 29 -275 12z m221 -202 c41 -27 75 -91 81 -150 l3 -40
-183 -3 -182 -2 0 37 c1 147 160 236 281 158z"/>
<path d="M9476 3369 c-21 -5 -61 -20 -88 -34 -61 -31 -68 -31 -68 -1 0 31 -15
36 -110 36 -68 0 -81 -3 -90 -19 -6 -13 -10 -177 -10 -464 0 -369 2 -447 14
-456 9 -8 47 -11 107 -9 l94 3 3 356 2 356 53 22 c28 12 83 27 122 33 38 6 76
12 83 14 16 5 17 145 0 162 -14 14 -56 14 -112 1z"/>
</g>
</svg>
